<?xml version="1.0" encoding="utf-8"?><!-- Uploaded to: SVG Repo, www.svgrepo.com, Generator: SVG Repo Mixer Tools -->
<svg width="800px" height="800px" viewBox="0 0 400 400" fill="none" xmlns="http://www.w3.org/2000/svg">
<path d="M120.973 99.9446C155.281 53.12 217.856 128.515 173.885 159.376C139.716 183.359 99.6015 145.977 115.644 113.452" stroke="#000000" stroke-opacity="0.9" stroke-width="16" stroke-linecap="round" stroke-linejoin="round"/>
<path d="M251.997 78.8812C248.041 80.8496 246.43 85.6519 248.399 89.6075C250.367 93.563 255.169 95.174 259.125 93.2056L251.997 78.8812ZM288.121 78.8543L286.006 86.5698L288.121 78.8543ZM249.817 110.493C252.85 107.281 252.705 102.217 249.493 99.1838C246.281 96.1502 241.218 96.2949 238.184 99.5071L249.817 110.493ZM259.125 93.2056C263.848 90.8553 268.698 88.6058 273.512 87.2472C278.327 85.8884 282.487 85.6053 286.006 86.5698L290.235 71.1388C282.868 69.1197 275.523 70.055 269.167 71.8485C262.811 73.6422 256.824 76.4791 251.997 78.8812L259.125 93.2056ZM286.006 86.5698C295.508 89.1739 301.479 94.3413 304.862 100.302C308.313 106.381 309.354 113.8 307.974 121.152C305.216 135.851 293.153 149 274.001 149V165C301.849 165 319.714 145.344 323.7 124.103C325.692 113.486 324.31 102.151 318.777 92.4034C313.176 82.5365 303.602 74.802 290.235 71.1388L286.006 86.5698ZM274.001 149C261.093 149 252.025 142.234 247.731 134.038C243.348 125.671 244.123 116.521 249.817 110.493L238.184 99.5071C226.878 111.479 226.678 128.329 233.558 141.462C240.527 154.766 254.958 165 274.001 165V149Z" fill="#000000" fill-opacity="0.9"/>
<path d="M125.979 293.367C125.518 292.381 125.019 291.433 124.855 290.351C124.647 288.953 124.453 287.558 124.312 286.155C124.209 285.176 124.112 284.205 124.015 283.226C123.843 281.607 123.679 279.985 123.494 278.364C123.125 275.099 122.723 271.845 122.309 268.588C122.307 268.576 122.305 268.563 122.303 268.553C120.992 260.025 119.504 251.541 117.881 243.072C117.048 238.734 116.221 234.402 115.396 230.065C114.756 226.704 114.018 223.343 113.549 219.954C112.82 214.689 111.644 208.759 115.097 204.151C116.795 201.874 118.744 199.963 121.356 198.768C122.801 198.103 124.276 197.558 125.802 197.139C127.544 196.669 129.285 196.199 131.019 195.698C134.853 194.593 138.67 193.465 142.527 192.427C144.748 191.823 165.937 185.434 187.005 182.425C208.929 179.293 240.327 179.217 242.696 178.837" stroke="#000000" stroke-opacity="0.9" stroke-width="16" stroke-linecap="round" stroke-linejoin="round"/>
<path d="M237.746 247.306C237.924 243.63 238.355 239.961 238.707 236.305C239.255 230.635 239.812 224.968 240.199 219.29C240.635 212.913 240.932 206.542 241.192 200.148C241.482 193.068 241.537 185.926 242.346 178.88C242.416 178.448 242.49 178.017 242.572 177.592C244.174 177.648 245.771 177.847 247.364 178.057C254.965 179.182 265.987 177.537 273.554 178.88C282.261 180.436 292.304 179.541 300.862 181.783" stroke="#000000" stroke-opacity="0.9" stroke-width="16" stroke-linecap="round" stroke-linejoin="round"/>
<path d="M304.574 185.061C304.449 185.858 304.333 186.655 304.208 187.451C301.638 204.141 297.832 220.634 293.221 236.903C290.941 244.946 288.488 252.952 286.441 261.048C285.49 264.793 284.782 268.588 283.965 272.355C283.513 274.431 283.046 276.506 282.548 278.565C282.337 279.445 282.103 280.324 281.87 281.196C281.699 281.843 281.503 282.437 281.248 283.053C280.874 284.346 280.204 285.466 279.223 286.413C279.012 286.654 278.795 286.902 278.585 287.143" stroke="#000000" stroke-opacity="0.9" stroke-width="16" stroke-linecap="round" stroke-linejoin="round"/>
<path d="M195.668 293.368C195.494 291.494 195.418 289.618 195.332 287.744C195.14 283.576 194.996 279.416 194.814 275.249C194.487 267.504 194.055 259.728 193.326 251.997C191.648 234.065 193.903 206.714 191.956 188.796" stroke="#000000" stroke-opacity="0.9" stroke-width="16" stroke-linecap="round" stroke-linejoin="round"/>
<path d="M232.329 277.183C232.947 276.139 233.697 274.887 233.994 273.746C234.331 272.448 234.483 271.145 234.607 269.818C234.575 269.459 234.546 269.108 234.507 268.759C234.438 267.715 234.254 266.694 233.981 265.693C233.536 263.897 232.589 262.153 231.458 260.706C230.672 259.695 229.979 258.897 229.083 258.12C229.468 257.818 229.852 257.517 230.235 257.21C233.62 254.495 236.961 251.753 240.269 248.957C243.512 246.22 246.546 243.305 249.626 240.404C250.795 239.308 252.057 238.257 253.15 237.094C254.51 235.632 255.87 234.18 257.23 232.726C263.484 226.053 269.675 219.342 275.85 212.61C278.036 210.225 280.131 207.718 282.478 205.482C286.399 201.762 290.32 198.049 294.241 194.329C297.603 191.131 301.043 188.088 304.575 185.061" stroke="#000000" stroke-opacity="0.9" stroke-width="16" stroke-linecap="round" stroke-linejoin="round"/>
<path d="M111.514 207.469C109.789 215.868 107.998 224.271 106.508 232.722C105.09 240.78 103.672 248.845 102.253 256.903C101.018 263.927 99.6952 270.935 98.3872 277.943C97.794 281.121 97.2177 284.301 96.6394 287.487C96.2521 289.656 96.4991 311.162 96.0874 314.137C96.0575 314.468 96.0107 314.795 95.9546 315.12C95.9321 315.294 95.9097 315.468 95.8872 315.64C95.8872 315.642 95.8853 315.642 95.8853 315.642C95.9078 315.479 95.9265 315.317 95.949 315.154C95.9172 315.326 95.8835 315.498 95.846 315.671C93.1309 317.646 90.311 319.535 88 322" stroke="#000000" stroke-opacity="0.9" stroke-width="16" stroke-linecap="round" stroke-linejoin="round"/>
</svg>