<!DOCTYPE svg PUBLIC "-//W3C//DTD SVG 1.1//EN" "http://www.w3.org/Graphics/SVG/1.1/DTD/svg11.dtd">
<!-- Uploaded to: SVG Repo, www.svgrepo.com, Transformed by: SVG Repo Mixer Tools -->
<svg width="800px" height="800px" viewBox="0 0 24 24" fill="none" xmlns="http://www.w3.org/2000/svg">
<g id="SVGRepo_bgCarrier" stroke-width="0"/>
<g id="SVGRepo_tracerCarrier" stroke-linecap="round" stroke-linejoin="round"/>
<g id="SVGRepo_iconCarrier"> <path d="M2 2h14v4h6v16H2V2zm18 6h-4v2h2v2h-2v2h2v2h-2v2h2v2h2V8zm-6-4H4v16h2v-2h6v2h2V4zM6 6h2v2H6V6zm6 0h-2v2h2V6zm-6 4h2v2H6v-2zm6 0h-2v2h2v-2zm-6 4h2v2H6v-2zm6 0h-2v2h2v-2z" fill="#e4e4e7"/> </g>
</svg>